<svg xmlns="http://www.w3.org/2000/svg" xmlns:xlink="http://www.w3.org/1999/xlink" width="800" zoomAndPan="magnify" viewBox="0 0 600 225" height="300" preserveAspectRatio="xMidYMid meet" version="1.2"><defs><clipPath id="4ebf584faf"><path d="M 1 41 L 124 41 L 124 159.671875 L 1 159.671875 Z M 1 41 "/></clipPath></defs><g id="57c35cedea"><g style="fill:#7c4eb6;fill-opacity:1;"><g transform="translate(112.052445, 132.58394)"><path style="stroke:none" d="M 28.4375 0.09375 C 24.195312 0.09375 20.472656 -0.515625 17.265625 -1.734375 C 14.691406 -2.765625 12.054688 -4.46875 9.359375 -6.84375 C 6.265625 -9.675781 4.300781 -13.179688 3.46875 -17.359375 C 3.144531 -18.703125 2.984375 -20.050781 2.984375 -21.40625 C 2.921875 -21.851562 2.921875 -22.300781 2.984375 -22.75 L 2.984375 -23.4375 L 16.203125 -23.234375 L 16.203125 -23.328125 C 16.203125 -20.953125 16.710938 -18.992188 17.734375 -17.453125 C 19.671875 -14.554688 23.238281 -13.109375 28.4375 -13.109375 C 36.800781 -13.109375 40.984375 -15.070312 40.984375 -19 C 40.984375 -22.789062 36.675781 -25.164062 28.0625 -26.125 C 23.113281 -26.707031 18.867188 -27.738281 15.328125 -29.21875 C 12.046875 -30.5625 9.378906 -32.359375 7.328125 -34.609375 C 4.429688 -37.828125 2.984375 -41.554688 2.984375 -45.796875 C 2.984375 -48.429688 3.46875 -50.90625 4.4375 -53.21875 C 5.144531 -54.957031 6.109375 -56.535156 7.328125 -57.953125 C 11.828125 -63.023438 18.960938 -65.5625 28.734375 -65.5625 C 34.585938 -65.5625 39.535156 -64.40625 43.578125 -62.09375 C 46.671875 -60.363281 49.179688 -58.050781 51.109375 -55.15625 C 52.515625 -52.96875 53.507812 -50.457031 54.09375 -47.625 C 54.28125 -46.664062 54.410156 -45.703125 54.484375 -44.734375 C 54.546875 -44.410156 54.578125 -44.09375 54.578125 -43.78125 L 54.578125 -43.203125 L 41.359375 -43.203125 L 41.359375 -43.09375 C 41.429688 -45.03125 40.953125 -46.671875 39.921875 -48.015625 C 37.859375 -50.910156 34.128906 -52.359375 28.734375 -52.359375 C 25.453125 -52.359375 22.753906 -51.941406 20.640625 -51.109375 C 18.003906 -50.078125 16.6875 -48.597656 16.6875 -46.671875 C 16.6875 -42.679688 20.957031 -40.207031 29.5 -39.25 C 39.144531 -38.15625 46.085938 -35.164062 50.328125 -30.28125 C 53.160156 -26.9375 54.578125 -23.175781 54.578125 -19 L 54.578125 -18.125 C 54.578125 -17.738281 54.546875 -17.351562 54.484375 -16.96875 C 54.410156 -15.9375 54.28125 -14.972656 54.09375 -14.078125 C 53.445312 -11.503906 52.222656 -9.222656 50.421875 -7.234375 C 48.304688 -4.847656 45.445312 -3.015625 41.84375 -1.734375 C 38.25 -0.515625 33.78125 0.09375 28.4375 0.09375 Z M 28.4375 0.09375 "/></g></g><g style="fill:#7c4eb6;fill-opacity:1;"><g transform="translate(169.520542, 132.58394)"><path style="stroke:none" d="M 16.296875 -67.203125 L 16.296875 -55.828125 L 2.890625 -55.828125 L 2.890625 -67.203125 Z M 16.390625 -49.5625 L 16.390625 0 L 2.890625 0 L 2.890625 -49.5625 Z M 16.390625 -49.5625 "/></g></g><g style="fill:#7c4eb6;fill-opacity:1;"><g transform="translate(188.805142, 132.58394)"><path style="stroke:none" d="M 27.578125 -49.46875 C 34.648438 -50.039062 40.5 -48.207031 45.125 -43.96875 C 50.070312 -39.40625 52.546875 -33.007812 52.546875 -24.78125 L 52.546875 0 L 40.015625 0 L 40.015625 -24.484375 L 39.921875 -24.484375 L 39.921875 -24.6875 C 39.921875 -28.09375 38.726562 -30.984375 36.34375 -33.359375 C 33.96875 -35.734375 31.078125 -36.921875 27.671875 -36.921875 C 24.203125 -36.796875 21.3125 -35.578125 19 -33.265625 C 16.550781 -30.816406 15.394531 -27.925781 15.53125 -24.59375 L 15.53125 -24.484375 L 15.421875 -24.484375 L 15.421875 0 L 1.921875 0 L 1.921875 -49.84375 L 15.421875 -49.84375 L 15.421875 -43.390625 C 18.441406 -46.992188 22.492188 -49.019531 27.578125 -49.46875 Z M 27.578125 -49.46875 "/></g></g><g style="fill:#7c4eb6;fill-opacity:1;"><g transform="translate(243.28413, 132.58394)"><path style="stroke:none" d="M 38.5625 -49.84375 L 52.0625 -49.84375 L 52.0625 0 L 38.5625 0 L 38.5625 -5.59375 C 35.800781 -1.988281 31.625 -0.1875 26.03125 -0.1875 C 19.21875 -0.125 13.367188 -2.503906 8.484375 -7.328125 C 3.597656 -12.148438 1.125 -18 1.0625 -24.875 C 1 -31.6875 3.378906 -37.535156 8.203125 -42.421875 C 13.015625 -47.304688 18.863281 -49.78125 25.75 -49.84375 C 31.40625 -49.84375 35.675781 -48.015625 38.5625 -44.359375 Z M 34.515625 -16.390625 C 36.898438 -18.765625 38.09375 -21.65625 38.09375 -25.0625 C 38.09375 -28.539062 36.867188 -31.4375 34.421875 -33.75 C 31.984375 -36.1875 29.125 -37.34375 25.84375 -37.21875 C 22.4375 -37.21875 19.539062 -36.03125 17.15625 -33.65625 C 14.78125 -31.269531 13.59375 -28.375 13.59375 -24.96875 C 13.59375 -21.625 14.816406 -18.734375 17.265625 -16.296875 C 19.640625 -13.921875 22.53125 -12.734375 25.9375 -12.734375 C 29.40625 -12.859375 32.265625 -14.078125 34.515625 -16.390625 Z M 34.515625 -16.390625 "/></g></g><g style="fill:#7c4eb6;fill-opacity:1;"><g transform="translate(298.245229, 132.58394)"><path style="stroke:none" d="M 28.734375 -49.65625 C 35.546875 -49.71875 41.394531 -47.335938 46.28125 -42.515625 C 51.164062 -37.703125 53.640625 -31.851562 53.703125 -24.96875 C 53.765625 -18.15625 51.390625 -12.304688 46.578125 -7.421875 C 41.753906 -2.535156 35.898438 -0.0625 29.015625 0 C 23.429688 0 19.222656 -1.765625 16.390625 -5.296875 L 16.390625 18.515625 L 2.890625 18.515625 L 2.890625 -49.5625 L 16.390625 -49.5625 L 16.390625 -44.359375 C 19.023438 -47.765625 23.140625 -49.53125 28.734375 -49.65625 Z M 37.609375 -16.203125 C 40.046875 -18.640625 41.203125 -21.53125 41.078125 -24.875 C 41.078125 -28.28125 39.890625 -31.175781 37.515625 -33.5625 C 35.066406 -35.875 32.171875 -37.03125 28.828125 -37.03125 C 25.421875 -37.03125 22.53125 -35.835938 20.15625 -33.453125 C 17.769531 -30.953125 16.578125 -28.0625 16.578125 -24.78125 C 16.710938 -21.3125 17.9375 -18.421875 20.25 -16.109375 C 22.625 -13.722656 25.515625 -12.53125 28.921875 -12.53125 C 32.398438 -12.664062 35.296875 -13.890625 37.609375 -16.203125 Z M 37.609375 -16.203125 "/></g></g><g style="fill:#7c4eb6;fill-opacity:1;"><g transform="translate(353.495587, 132.58394)"><path style="stroke:none" d="M 38.671875 -49.65625 L 38.671875 -36.15625 L 27.578125 -36.15625 L 27.578125 0 L 14.078125 0 L 14.078125 -36.15625 L 2.890625 -36.15625 L 2.890625 -49.65625 L 14.078125 -49.65625 L 14.078125 -67.015625 L 27.578125 -67.015625 L 27.578125 -49.65625 Z M 38.671875 -49.65625 "/></g></g><g style="fill:#7c4eb6;fill-opacity:1;"><g transform="translate(395.053897, 132.58394)"><path style="stroke:none" d="M 16.296875 -67.203125 L 16.296875 -55.828125 L 2.890625 -55.828125 L 2.890625 -67.203125 Z M 16.390625 -49.5625 L 16.390625 0 L 2.890625 0 L 2.890625 -49.5625 Z M 16.390625 -49.5625 "/></g></g><g style="fill:#7c4eb6;fill-opacity:1;"><g transform="translate(414.338497, 132.58394)"><path style="stroke:none" d="M 2.890625 -49.84375 L 15.421875 -49.84375 L 15.421875 -24.78125 C 15.421875 -23.8125 15.582031 -22.71875 15.90625 -21.5 C 16.289062 -20.019531 16.867188 -18.671875 17.640625 -17.453125 C 19.765625 -14.234375 22.785156 -12.625 26.703125 -12.625 C 31.015625 -12.625 34.132812 -14.265625 36.0625 -17.546875 C 36.769531 -18.703125 37.285156 -20.050781 37.609375 -21.59375 C 37.859375 -22.6875 37.984375 -23.78125 37.984375 -24.875 L 37.984375 -49.84375 L 51.484375 -49.84375 L 51.484375 0 L 37.984375 0 L 37.984375 -5.203125 C 34.835938 -1.734375 30.789062 0 25.84375 0 C 19.476562 0.0625 14.078125 -2.21875 9.640625 -6.84375 C 5.140625 -11.40625 2.890625 -17.0625 2.890625 -23.8125 Z M 2.890625 -49.84375 "/></g></g><g style="fill:#7c4eb6;fill-opacity:1;"><g transform="translate(468.721059, 132.58394)"><path style="stroke:none" d="M 63.640625 -49.75 C 70.328125 -49.8125 75.757812 -47.820312 79.9375 -43.78125 C 84.4375 -39.53125 86.6875 -33.582031 86.6875 -25.9375 L 86.6875 0 L 74.15625 0 L 74.15625 -25.0625 C 74.15625 -26.03125 73.992188 -27.125 73.671875 -28.34375 C 73.210938 -29.820312 72.597656 -31.140625 71.828125 -32.296875 C 69.773438 -35.578125 66.753906 -37.21875 62.765625 -37.21875 C 58.523438 -37.21875 55.441406 -35.578125 53.515625 -32.296875 C 52.804688 -31.078125 52.289062 -29.695312 51.96875 -28.15625 C 51.707031 -27.0625 51.578125 -25.96875 51.578125 -24.875 L 51.578125 0 L 38.953125 0 L 38.953125 -25.0625 C 38.953125 -26.03125 38.789062 -27.125 38.46875 -28.34375 C 38.082031 -29.820312 37.503906 -31.140625 36.734375 -32.296875 C 34.617188 -35.578125 31.597656 -37.21875 27.671875 -37.21875 C 23.367188 -37.21875 20.25 -35.578125 18.3125 -32.296875 C 17.613281 -31.078125 17.101562 -29.695312 16.78125 -28.15625 C 16.519531 -27.0625 16.390625 -25.96875 16.390625 -24.875 L 16.390625 0 L 2.890625 0 L 2.890625 -49.84375 L 16.390625 -49.84375 L 16.390625 -44.640625 C 19.535156 -48.046875 23.585938 -49.75 28.546875 -49.75 C 35.804688 -49.882812 41.6875 -47.085938 46.1875 -41.359375 L 50.234375 -45.125 C 54.023438 -48.207031 58.492188 -49.75 63.640625 -49.75 Z M 63.640625 -49.75 "/></g></g><g clip-rule="nonzero" clip-path="url(#4ebf584faf)"><path style=" stroke:none;fill-rule:nonzero;fill:#7c4eb6;fill-opacity:1;" d="M 111.515625 159.503906 C 111.972656 159.507812 112.429688 159.480469 112.886719 159.429688 C 113.339844 159.378906 113.789062 159.300781 114.238281 159.195312 C 114.683594 159.089844 115.121094 158.960938 115.550781 158.808594 C 115.984375 158.652344 116.402344 158.472656 116.8125 158.269531 C 117.222656 158.066406 117.621094 157.839844 118.003906 157.589844 C 118.390625 157.339844 118.757812 157.070312 119.109375 156.777344 C 119.464844 156.484375 119.796875 156.171875 120.113281 155.84375 C 120.429688 155.511719 120.726562 155.164062 121.003906 154.796875 C 121.28125 154.433594 121.535156 154.050781 121.765625 153.65625 C 122 153.261719 122.207031 152.855469 122.390625 152.4375 C 122.578125 152.019531 122.738281 151.589844 122.871094 151.152344 C 123.007812 150.714844 123.117188 150.269531 123.203125 149.820312 C 123.285156 149.371094 123.34375 148.917969 123.375 148.460938 C 123.40625 148.003906 123.410156 147.546875 123.390625 147.089844 C 123.367188 146.628906 123.320312 146.175781 123.246094 145.722656 C 123.171875 145.273438 123.070312 144.824219 122.945312 144.386719 C 122.820312 143.945312 122.667969 143.511719 122.492188 143.089844 C 122.316406 142.667969 122.117188 142.257812 121.894531 141.855469 C 121.667969 141.457031 121.421875 141.070312 121.15625 140.699219 C 120.886719 140.328125 120.597656 139.976562 120.289062 139.636719 C 119.980469 139.300781 119.652344 138.980469 119.304688 138.679688 C 118.957031 138.382812 118.597656 138.101562 118.21875 137.84375 C 117.839844 137.585938 117.445312 137.351562 117.042969 137.140625 C 116.636719 136.925781 116.21875 136.738281 115.792969 136.574219 C 115.363281 136.410156 114.929688 136.273438 114.484375 136.15625 C 114.039062 136.042969 113.589844 135.957031 113.136719 135.894531 C 112.683594 135.832031 112.226562 135.796875 111.769531 135.789062 C 111.3125 135.78125 110.855469 135.796875 110.398438 135.84375 C 109.945312 135.886719 109.492188 135.957031 109.042969 136.054688 C 108.597656 136.152344 108.15625 136.273438 107.722656 136.421875 C 107.289062 136.566406 106.863281 136.738281 106.453125 136.9375 C 106.039062 137.132812 105.636719 137.351562 105.25 137.597656 L 77.640625 109.941406 C 78.441406 108.917969 79.144531 107.828125 79.75 106.675781 C 80.355469 105.523438 80.851562 104.324219 81.238281 103.082031 C 81.625 101.839844 81.898438 100.574219 82.054688 99.28125 C 82.214844 97.988281 82.253906 96.695312 82.175781 95.394531 C 82.097656 94.097656 81.90625 92.816406 81.59375 91.550781 C 81.285156 90.285156 80.863281 89.0625 80.332031 87.875 C 79.800781 86.6875 79.164062 85.554688 78.429688 84.484375 C 77.691406 83.410156 76.863281 82.414062 75.945312 81.492188 L 88.152344 65.894531 C 88.585938 66.097656 89.03125 66.277344 89.488281 66.425781 C 89.945312 66.574219 90.410156 66.699219 90.882812 66.789062 C 91.355469 66.882812 91.832031 66.949219 92.308594 66.984375 C 92.789062 67.019531 93.269531 67.027344 93.75 67.003906 C 94.230469 66.980469 94.707031 66.925781 95.183594 66.847656 C 95.65625 66.765625 96.125 66.65625 96.585938 66.519531 C 97.046875 66.378906 97.496094 66.214844 97.9375 66.023438 C 98.378906 65.828125 98.804688 65.613281 99.21875 65.367188 C 99.632812 65.121094 100.03125 64.851562 100.414062 64.558594 C 100.792969 64.265625 101.15625 63.953125 101.5 63.617188 C 101.84375 63.277344 102.164062 62.921875 102.464844 62.546875 C 102.761719 62.167969 103.039062 61.777344 103.292969 61.367188 C 103.542969 60.957031 103.769531 60.535156 103.96875 60.097656 C 104.171875 59.660156 104.34375 59.210938 104.488281 58.753906 C 104.636719 58.296875 104.753906 57.828125 104.84375 57.355469 C 104.933594 56.882812 104.992188 56.410156 105.023438 55.929688 C 105.054688 55.449219 105.058594 54.96875 105.03125 54.488281 C 105.003906 54.007812 104.949219 53.53125 104.863281 53.058594 C 104.78125 52.585938 104.667969 52.117188 104.523438 51.65625 C 104.382812 51.199219 104.214844 50.75 104.019531 50.308594 C 103.820312 49.871094 103.601562 49.445312 103.351562 49.03125 C 103.105469 48.621094 102.832031 48.226562 102.535156 47.847656 C 102.238281 47.46875 101.921875 47.109375 101.582031 46.765625 C 101.242188 46.425781 100.882812 46.109375 100.503906 45.8125 C 100.125 45.515625 99.730469 45.242188 99.320312 44.992188 C 98.90625 44.746094 98.480469 44.523438 98.042969 44.324219 C 97.605469 44.128906 97.15625 43.957031 96.695312 43.816406 C 96.234375 43.675781 95.769531 43.558594 95.296875 43.472656 C 94.824219 43.390625 94.347656 43.332031 93.867188 43.304688 C 93.386719 43.277344 92.90625 43.277344 92.425781 43.308594 C 91.945312 43.339844 91.46875 43.398438 90.996094 43.488281 C 90.523438 43.578125 90.058594 43.695312 89.601562 43.839844 C 89.140625 43.984375 88.695312 44.15625 88.257812 44.355469 C 87.820312 44.554688 87.394531 44.78125 86.984375 45.035156 C 86.574219 45.285156 86.179688 45.558594 85.804688 45.859375 C 85.429688 46.15625 85.070312 46.480469 84.734375 46.820312 C 84.394531 47.164062 84.082031 47.527344 83.785156 47.90625 C 83.492188 48.289062 83.222656 48.683594 82.976562 49.097656 C 82.734375 49.511719 82.511719 49.941406 82.320312 50.378906 C 82.125 50.820312 81.960938 51.269531 81.824219 51.730469 C 81.683594 52.191406 81.574219 52.660156 81.492188 53.132812 C 81.410156 53.605469 81.355469 54.085938 81.332031 54.566406 C 81.308594 55.046875 81.316406 55.523438 81.351562 56.003906 C 81.382812 56.484375 81.449219 56.960938 81.539062 57.433594 C 81.632812 57.90625 81.753906 58.367188 81.902344 58.828125 C 82.050781 59.285156 82.226562 59.730469 82.429688 60.167969 C 82.632812 60.601562 82.863281 61.023438 83.117188 61.433594 C 83.371094 61.839844 83.652344 62.230469 83.953125 62.605469 L 71.734375 78.203125 C 70.808594 77.644531 69.847656 77.160156 68.851562 76.75 C 67.851562 76.339844 66.832031 76.003906 65.78125 75.746094 C 64.734375 75.488281 63.671875 75.3125 62.597656 75.214844 C 61.523438 75.117188 60.449219 75.097656 59.371094 75.164062 C 58.292969 75.226562 57.226562 75.371094 56.171875 75.59375 C 55.117188 75.820312 54.085938 76.121094 53.074219 76.5 C 52.066406 76.882812 51.089844 77.335938 50.148438 77.859375 C 49.207031 78.386719 48.308594 78.980469 47.457031 79.644531 L 27.59375 59.65625 C 27.851562 59.246094 28.082031 58.824219 28.289062 58.390625 C 28.496094 57.953125 28.671875 57.503906 28.824219 57.046875 C 28.976562 56.589844 29.097656 56.125 29.191406 55.652344 C 29.289062 55.175781 29.351562 54.699219 29.390625 54.21875 C 29.425781 53.738281 29.433594 53.257812 29.410156 52.773438 C 29.390625 52.292969 29.339844 51.8125 29.257812 51.339844 C 29.179688 50.863281 29.070312 50.394531 28.933594 49.929688 C 28.796875 49.46875 28.628906 49.015625 28.4375 48.574219 C 28.246094 48.132812 28.027344 47.703125 27.785156 47.285156 C 27.539062 46.871094 27.269531 46.472656 26.976562 46.089844 C 26.683594 45.703125 26.367188 45.339844 26.03125 44.996094 C 25.695312 44.652344 25.335938 44.328125 24.960938 44.027344 C 24.585938 43.726562 24.191406 43.449219 23.78125 43.195312 C 23.371094 42.941406 22.945312 42.710938 22.507812 42.511719 C 22.070312 42.308594 21.621094 42.132812 21.160156 41.988281 C 20.703125 41.839844 20.234375 41.71875 19.761719 41.628906 C 19.289062 41.539062 18.808594 41.476562 18.328125 41.445312 C 17.847656 41.410156 17.367188 41.410156 16.882812 41.433594 C 16.402344 41.460938 15.925781 41.515625 15.449219 41.601562 C 14.972656 41.683594 14.507812 41.796875 14.046875 41.9375 C 13.582031 42.078125 13.132812 42.246094 12.691406 42.445312 C 12.25 42.640625 11.824219 42.863281 11.410156 43.109375 C 10.996094 43.355469 10.597656 43.628906 10.21875 43.925781 C 9.835938 44.222656 9.476562 44.539062 9.132812 44.878906 C 8.792969 45.21875 8.472656 45.582031 8.171875 45.960938 C 7.875 46.339844 7.601562 46.734375 7.351562 47.148438 C 7.101562 47.558594 6.875 47.984375 6.679688 48.425781 C 6.480469 48.863281 6.308594 49.316406 6.164062 49.777344 C 6.023438 50.234375 5.90625 50.703125 5.820312 51.179688 C 5.734375 51.652344 5.675781 52.128906 5.648438 52.613281 C 5.617188 53.09375 5.621094 53.574219 5.648438 54.058594 C 5.679688 54.539062 5.738281 55.015625 5.828125 55.492188 C 5.914062 55.964844 6.03125 56.433594 6.175781 56.890625 C 6.320312 57.351562 6.492188 57.800781 6.695312 58.242188 C 6.894531 58.679688 7.117188 59.105469 7.371094 59.515625 C 7.621094 59.929688 7.898438 60.324219 8.195312 60.703125 C 8.496094 61.082031 8.816406 61.4375 9.160156 61.777344 C 9.503906 62.117188 9.867188 62.433594 10.246094 62.730469 C 10.628906 63.023438 11.027344 63.296875 11.441406 63.542969 C 11.855469 63.789062 12.285156 64.007812 12.726562 64.203125 C 13.167969 64.398438 13.617188 64.566406 14.078125 64.707031 C 14.542969 64.84375 15.011719 64.957031 15.484375 65.039062 C 15.960938 65.121094 16.4375 65.175781 16.921875 65.199219 C 17.402344 65.222656 17.882812 65.21875 18.367188 65.1875 C 18.847656 65.152344 19.324219 65.089844 19.796875 64.996094 C 20.269531 64.902344 20.738281 64.785156 21.195312 64.636719 C 21.65625 64.484375 22.101562 64.308594 22.539062 64.105469 C 22.976562 63.902344 23.402344 63.675781 23.8125 63.417969 L 43.671875 83.398438 C 42.648438 84.703125 41.789062 86.105469 41.089844 87.605469 C 40.394531 89.105469 39.875 90.667969 39.535156 92.285156 C 39.195312 93.90625 39.046875 95.542969 39.082031 97.199219 C 39.121094 98.855469 39.347656 100.484375 39.761719 102.085938 L 22.796875 108.828125 C 22.53125 108.441406 22.242188 108.078125 21.929688 107.726562 C 21.621094 107.378906 21.289062 107.046875 20.941406 106.738281 C 20.59375 106.425781 20.226562 106.140625 19.84375 105.871094 C 19.457031 105.605469 19.0625 105.363281 18.648438 105.140625 C 18.234375 104.921875 17.8125 104.726562 17.375 104.558594 C 16.941406 104.390625 16.496094 104.246094 16.046875 104.128906 C 15.59375 104.011719 15.136719 103.921875 14.671875 103.859375 C 14.210938 103.796875 13.746094 103.761719 13.277344 103.753906 C 12.808594 103.746094 12.34375 103.765625 11.878906 103.8125 C 11.414062 103.859375 10.953125 103.933594 10.496094 104.035156 C 10.042969 104.136719 9.59375 104.265625 9.152344 104.421875 C 8.710938 104.578125 8.28125 104.757812 7.863281 104.964844 C 7.441406 105.167969 7.039062 105.398438 6.644531 105.652344 C 6.253906 105.90625 5.878906 106.183594 5.515625 106.480469 C 5.15625 106.78125 4.816406 107.097656 4.496094 107.4375 C 4.175781 107.777344 3.875 108.132812 3.59375 108.507812 C 3.3125 108.882812 3.058594 109.269531 2.824219 109.675781 C 2.589844 110.082031 2.382812 110.496094 2.199219 110.925781 C 2.015625 111.355469 1.855469 111.796875 1.722656 112.242188 C 1.59375 112.691406 1.488281 113.144531 1.410156 113.605469 C 1.332031 114.066406 1.28125 114.53125 1.257812 114.996094 C 1.234375 115.464844 1.238281 115.929688 1.269531 116.398438 C 1.300781 116.863281 1.359375 117.324219 1.445312 117.785156 C 1.53125 118.242188 1.648438 118.695312 1.785156 119.140625 C 1.925781 119.589844 2.09375 120.023438 2.285156 120.449219 C 2.476562 120.875 2.691406 121.289062 2.933594 121.691406 C 3.175781 122.089844 3.4375 122.476562 3.722656 122.84375 C 4.011719 123.214844 4.316406 123.5625 4.644531 123.898438 C 4.972656 124.230469 5.320312 124.542969 5.683594 124.835938 C 6.050781 125.125 6.429688 125.394531 6.828125 125.640625 C 7.222656 125.890625 7.632812 126.113281 8.054688 126.308594 C 8.480469 126.507812 8.914062 126.679688 9.355469 126.828125 C 9.800781 126.976562 10.25 127.09375 10.707031 127.1875 C 11.167969 127.28125 11.628906 127.347656 12.09375 127.386719 C 12.558594 127.425781 13.023438 127.4375 13.492188 127.421875 C 13.960938 127.40625 14.421875 127.363281 14.886719 127.289062 C 15.347656 127.21875 15.804688 127.121094 16.253906 126.996094 C 16.703125 126.871094 17.144531 126.71875 17.578125 126.542969 C 18.007812 126.363281 18.429688 126.160156 18.835938 125.933594 C 19.246094 125.707031 19.640625 125.457031 20.019531 125.183594 C 20.394531 124.910156 20.757812 124.613281 21.101562 124.296875 C 21.445312 123.980469 21.769531 123.644531 22.074219 123.289062 C 22.375 122.9375 22.660156 122.5625 22.917969 122.175781 C 23.179688 121.789062 23.414062 121.386719 23.625 120.96875 C 23.839844 120.554688 24.027344 120.125 24.1875 119.6875 C 24.347656 119.25 24.484375 118.800781 24.59375 118.347656 C 24.703125 117.894531 24.785156 117.433594 24.839844 116.96875 C 24.894531 116.507812 24.917969 116.039062 24.917969 115.574219 C 24.914062 114.976562 24.859375 114.382812 24.765625 113.792969 L 41.738281 107.050781 C 42.109375 107.734375 42.519531 108.394531 42.964844 109.03125 C 43.40625 109.671875 43.886719 110.28125 44.394531 110.871094 C 44.90625 111.457031 45.449219 112.011719 46.019531 112.542969 C 46.589844 113.070312 47.1875 113.566406 47.8125 114.027344 C 48.4375 114.492188 49.085938 114.917969 49.757812 115.3125 C 50.429688 115.703125 51.121094 116.058594 51.832031 116.378906 C 52.539062 116.695312 53.265625 116.976562 54.003906 117.214844 C 54.746094 117.453125 55.496094 117.652344 56.257812 117.8125 C 57.019531 117.96875 57.789062 118.085938 58.5625 118.160156 C 59.335938 118.234375 60.113281 118.269531 60.890625 118.257812 C 61.667969 118.25 62.441406 118.199219 63.214844 118.105469 C 63.988281 118.015625 64.75 117.878906 65.507812 117.703125 C 66.265625 117.527344 67.011719 117.3125 67.746094 117.054688 C 68.480469 116.796875 69.199219 116.503906 69.902344 116.167969 C 70.605469 115.832031 71.285156 115.460938 71.949219 115.054688 C 72.609375 114.644531 73.25 114.203125 73.863281 113.726562 L 101.472656 141.378906 C 100.910156 142.277344 100.472656 143.230469 100.167969 144.242188 C 99.859375 145.257812 99.695312 146.292969 99.664062 147.351562 C 99.636719 148.40625 99.746094 149.449219 99.996094 150.480469 C 100.25 151.507812 100.628906 152.484375 101.144531 153.410156 C 101.65625 154.335938 102.28125 155.175781 103.019531 155.933594 C 103.757812 156.691406 104.582031 157.339844 105.496094 157.878906 C 106.40625 158.414062 107.375 158.820312 108.394531 159.097656 C 109.417969 159.375 110.457031 159.511719 111.515625 159.511719 Z M 13.058594 122.132812 C 12.632812 122.132812 12.210938 122.09375 11.789062 122.007812 C 11.371094 121.925781 10.964844 121.800781 10.566406 121.636719 C 10.171875 121.476562 9.796875 121.273438 9.441406 121.039062 C 9.085938 120.800781 8.757812 120.53125 8.453125 120.226562 C 8.152344 119.925781 7.882812 119.597656 7.644531 119.242188 C 7.40625 118.886719 7.203125 118.511719 7.039062 118.117188 C 6.875 117.722656 6.75 117.316406 6.667969 116.898438 C 6.582031 116.476562 6.542969 116.054688 6.539062 115.625 C 6.539062 115.199219 6.582031 114.777344 6.664062 114.355469 C 6.746094 113.9375 6.867188 113.527344 7.03125 113.132812 C 7.191406 112.738281 7.390625 112.363281 7.628906 112.007812 C 7.867188 111.648438 8.132812 111.320312 8.4375 111.015625 C 8.738281 110.714844 9.066406 110.441406 9.421875 110.203125 C 9.773438 109.964844 10.148438 109.765625 10.542969 109.597656 C 10.9375 109.433594 11.34375 109.308594 11.765625 109.222656 C 12.183594 109.136719 12.605469 109.09375 13.035156 109.09375 C 13.460938 109.089844 13.886719 109.132812 14.304688 109.214844 C 14.722656 109.292969 15.132812 109.417969 15.527344 109.578125 C 15.921875 109.738281 16.300781 109.9375 16.65625 110.175781 C 17.011719 110.410156 17.34375 110.679688 17.648438 110.980469 C 17.949219 111.28125 18.222656 111.609375 18.460938 111.960938 C 18.703125 112.316406 18.902344 112.691406 19.070312 113.085938 C 19.234375 113.480469 19.363281 113.886719 19.449219 114.304688 C 19.535156 114.722656 19.578125 115.144531 19.582031 115.574219 C 19.582031 116.003906 19.539062 116.425781 19.457031 116.847656 C 19.375 117.269531 19.25 117.675781 19.085938 118.074219 C 18.925781 118.46875 18.722656 118.847656 18.484375 119.203125 C 18.25 119.5625 17.976562 119.890625 17.675781 120.195312 C 17.371094 120.5 17.042969 120.769531 16.6875 121.007812 C 16.332031 121.246094 15.953125 121.449219 15.558594 121.613281 C 15.164062 121.777344 14.753906 121.902344 14.335938 121.988281 C 13.914062 122.070312 13.488281 122.113281 13.058594 122.113281 Z M 118.035156 147.667969 C 118.035156 148.09375 117.996094 148.519531 117.910156 148.9375 C 117.828125 149.359375 117.703125 149.765625 117.542969 150.164062 C 117.378906 150.558594 117.175781 150.933594 116.941406 151.289062 C 116.703125 151.648438 116.433594 151.976562 116.128906 152.28125 C 115.828125 152.582031 115.496094 152.851562 115.140625 153.089844 C 114.785156 153.328125 114.410156 153.53125 114.015625 153.695312 C 113.621094 153.859375 113.210938 153.984375 112.792969 154.066406 C 112.371094 154.152344 111.949219 154.191406 111.519531 154.191406 C 111.089844 154.195312 110.667969 154.152344 110.246094 154.070312 C 109.828125 153.984375 109.417969 153.863281 109.023438 153.699219 C 108.628906 153.535156 108.253906 153.335938 107.894531 153.097656 C 107.539062 152.859375 107.210938 152.589844 106.90625 152.285156 C 106.605469 151.984375 106.332031 151.652344 106.09375 151.296875 C 105.859375 150.941406 105.65625 150.566406 105.492188 150.171875 C 105.328125 149.773438 105.203125 149.367188 105.121094 148.949219 C 105.039062 148.527344 104.996094 148.105469 104.996094 147.675781 C 104.996094 147.246094 105.035156 146.824219 105.121094 146.402344 C 105.203125 145.984375 105.328125 145.574219 105.492188 145.179688 C 105.65625 144.785156 105.855469 144.40625 106.09375 144.050781 C 106.332031 143.695312 106.601562 143.367188 106.902344 143.0625 C 107.207031 142.761719 107.535156 142.492188 107.890625 142.253906 C 108.25 142.015625 108.625 141.8125 109.019531 141.648438 C 109.414062 141.484375 109.824219 141.363281 110.242188 141.277344 C 110.664062 141.195312 111.085938 141.152344 111.515625 141.152344 C 111.941406 141.152344 112.363281 141.195312 112.785156 141.277344 C 113.203125 141.363281 113.609375 141.484375 114.003906 141.648438 C 114.398438 141.8125 114.773438 142.011719 115.128906 142.25 C 115.484375 142.484375 115.8125 142.753906 116.113281 143.054688 C 116.417969 143.355469 116.6875 143.683594 116.925781 144.039062 C 117.164062 144.394531 117.363281 144.765625 117.53125 145.160156 C 117.695312 145.554688 117.820312 145.960938 117.90625 146.378906 C 117.988281 146.796875 118.03125 147.21875 118.035156 147.648438 Z M 93.144531 48.636719 C 93.570312 48.636719 93.996094 48.679688 94.414062 48.761719 C 94.835938 48.847656 95.242188 48.96875 95.636719 49.132812 C 96.035156 49.296875 96.410156 49.5 96.765625 49.738281 C 97.121094 49.972656 97.449219 50.246094 97.753906 50.546875 C 98.054688 50.851562 98.328125 51.179688 98.5625 51.535156 C 98.800781 51.890625 99.003906 52.265625 99.167969 52.664062 C 99.332031 53.058594 99.453125 53.464844 99.539062 53.886719 C 99.621094 54.304688 99.664062 54.730469 99.664062 55.15625 C 99.664062 55.585938 99.621094 56.011719 99.539062 56.429688 C 99.453125 56.847656 99.332031 57.257812 99.167969 57.652344 C 99.003906 58.046875 98.800781 58.425781 98.5625 58.78125 C 98.328125 59.136719 98.054688 59.464844 97.753906 59.769531 C 97.449219 60.070312 97.121094 60.339844 96.765625 60.578125 C 96.410156 60.816406 96.035156 61.019531 95.636719 61.179688 C 95.242188 61.34375 94.835938 61.46875 94.414062 61.550781 C 93.996094 61.636719 93.570312 61.679688 93.144531 61.679688 C 92.714844 61.679688 92.289062 61.636719 91.871094 61.550781 C 91.449219 61.46875 91.042969 61.34375 90.648438 61.179688 C 90.253906 61.019531 89.875 60.816406 89.519531 60.578125 C 89.164062 60.339844 88.835938 60.070312 88.53125 59.769531 C 88.230469 59.464844 87.960938 59.136719 87.722656 58.78125 C 87.484375 58.425781 87.28125 58.046875 87.117188 57.652344 C 86.957031 57.257812 86.832031 56.847656 86.75 56.429688 C 86.664062 56.011719 86.621094 55.585938 86.621094 55.15625 C 86.625 54.730469 86.667969 54.304688 86.75 53.886719 C 86.835938 53.46875 86.957031 53.058594 87.121094 52.664062 C 87.285156 52.269531 87.488281 51.894531 87.726562 51.539062 C 87.964844 51.183594 88.234375 50.855469 88.535156 50.550781 C 88.839844 50.25 89.167969 49.976562 89.523438 49.742188 C 89.878906 49.503906 90.253906 49.300781 90.648438 49.136719 C 91.046875 48.972656 91.453125 48.847656 91.871094 48.765625 C 92.292969 48.679688 92.714844 48.636719 93.144531 48.636719 Z M 11.058594 53.355469 C 11.058594 52.925781 11.101562 52.503906 11.183594 52.082031 C 11.265625 51.664062 11.390625 51.257812 11.554688 50.859375 C 11.71875 50.464844 11.917969 50.089844 12.15625 49.734375 C 12.394531 49.378906 12.664062 49.046875 12.96875 48.746094 C 13.269531 48.441406 13.601562 48.171875 13.957031 47.933594 C 14.3125 47.695312 14.6875 47.496094 15.082031 47.332031 C 15.480469 47.167969 15.886719 47.042969 16.304688 46.960938 C 16.726562 46.878906 17.148438 46.835938 17.578125 46.835938 C 18.007812 46.835938 18.429688 46.878906 18.851562 46.960938 C 19.269531 47.042969 19.679688 47.167969 20.074219 47.332031 C 20.46875 47.496094 20.84375 47.695312 21.199219 47.933594 C 21.554688 48.171875 21.886719 48.441406 22.1875 48.746094 C 22.492188 49.046875 22.761719 49.378906 23 49.734375 C 23.238281 50.089844 23.4375 50.464844 23.601562 50.859375 C 23.765625 51.257812 23.890625 51.664062 23.972656 52.082031 C 24.054688 52.503906 24.097656 52.925781 24.097656 53.355469 C 24.097656 53.785156 24.054688 54.207031 23.972656 54.628906 C 23.890625 55.046875 23.765625 55.457031 23.601562 55.851562 C 23.4375 56.246094 23.238281 56.621094 23 56.976562 C 22.761719 57.335938 22.492188 57.664062 22.1875 57.964844 C 21.886719 58.269531 21.554688 58.539062 21.199219 58.777344 C 20.84375 59.015625 20.46875 59.214844 20.074219 59.378906 C 19.679688 59.542969 19.269531 59.667969 18.851562 59.75 C 18.429688 59.835938 18.007812 59.875 17.578125 59.875 C 17.148438 59.875 16.726562 59.835938 16.304688 59.75 C 15.886719 59.667969 15.476562 59.542969 15.082031 59.378906 C 14.6875 59.214844 14.308594 59.015625 13.953125 58.777344 C 13.597656 58.539062 13.269531 58.269531 12.964844 57.964844 C 12.664062 57.664062 12.390625 57.335938 12.152344 56.980469 C 11.914062 56.621094 11.714844 56.246094 11.550781 55.851562 C 11.386719 55.457031 11.261719 55.046875 11.179688 54.628906 C 11.09375 54.207031 11.050781 53.785156 11.050781 53.355469 Z M 44.425781 96.6875 C 44.425781 96.15625 44.449219 95.625 44.503906 95.097656 C 44.554688 94.566406 44.632812 94.042969 44.734375 93.519531 C 44.839844 92.996094 44.96875 92.484375 45.121094 91.972656 C 45.273438 91.464844 45.453125 90.964844 45.65625 90.472656 C 45.859375 89.980469 46.085938 89.5 46.335938 89.03125 C 46.585938 88.5625 46.859375 88.109375 47.15625 87.664062 C 47.449219 87.222656 47.765625 86.796875 48.105469 86.386719 C 48.441406 85.972656 48.796875 85.578125 49.171875 85.203125 C 49.550781 84.828125 49.941406 84.46875 50.351562 84.132812 C 50.765625 83.796875 51.191406 83.480469 51.632812 83.183594 C 52.074219 82.886719 52.53125 82.613281 53 82.363281 C 53.46875 82.113281 53.949219 81.886719 54.4375 81.683594 C 54.929688 81.476562 55.429688 81.300781 55.9375 81.144531 C 56.449219 80.988281 56.960938 80.859375 57.484375 80.757812 C 58.003906 80.652344 58.53125 80.574219 59.058594 80.523438 C 59.589844 80.46875 60.121094 80.445312 60.652344 80.445312 C 61.183594 80.445312 61.714844 80.46875 62.242188 80.523438 C 62.773438 80.574219 63.296875 80.652344 63.820312 80.753906 C 64.339844 80.859375 64.855469 80.988281 65.363281 81.140625 C 65.875 81.296875 66.375 81.476562 66.863281 81.679688 C 67.355469 81.882812 67.835938 82.109375 68.304688 82.359375 C 68.773438 82.609375 69.230469 82.882812 69.671875 83.179688 C 70.113281 83.472656 70.539062 83.789062 70.953125 84.128906 C 71.363281 84.464844 71.757812 84.820312 72.132812 85.199219 C 72.507812 85.574219 72.863281 85.96875 73.203125 86.378906 C 73.539062 86.789062 73.855469 87.214844 74.152344 87.65625 C 74.445312 88.101562 74.71875 88.554688 74.96875 89.023438 C 75.222656 89.492188 75.449219 89.972656 75.652344 90.464844 C 75.855469 90.957031 76.035156 91.457031 76.1875 91.964844 C 76.34375 92.472656 76.472656 92.988281 76.574219 93.511719 C 76.679688 94.03125 76.757812 94.558594 76.808594 95.085938 C 76.859375 95.617188 76.886719 96.148438 76.886719 96.679688 C 76.886719 97.210938 76.859375 97.742188 76.808594 98.269531 C 76.753906 98.800781 76.675781 99.324219 76.574219 99.84375 C 76.46875 100.367188 76.339844 100.882812 76.183594 101.390625 C 76.03125 101.898438 75.851562 102.398438 75.648438 102.890625 C 75.445312 103.382812 75.21875 103.863281 74.964844 104.332031 C 74.714844 104.800781 74.441406 105.253906 74.144531 105.699219 C 73.851562 106.140625 73.535156 106.566406 73.195312 106.976562 C 72.859375 107.386719 72.503906 107.78125 72.125 108.15625 C 71.75 108.53125 71.355469 108.890625 70.945312 109.226562 C 70.535156 109.5625 70.105469 109.878906 69.664062 110.175781 C 69.222656 110.46875 68.765625 110.742188 68.296875 110.992188 C 67.828125 111.242188 67.347656 111.46875 66.855469 111.671875 C 66.367188 111.875 65.863281 112.054688 65.355469 112.207031 C 64.847656 112.363281 64.332031 112.492188 63.808594 112.59375 C 63.289062 112.699219 62.761719 112.773438 62.234375 112.828125 C 61.703125 112.878906 61.175781 112.90625 60.644531 112.902344 C 60.113281 112.902344 59.582031 112.875 59.054688 112.824219 C 58.523438 112.773438 58 112.691406 57.480469 112.589844 C 56.957031 112.484375 56.445312 112.355469 55.9375 112.203125 C 55.429688 112.046875 54.929688 111.867188 54.4375 111.664062 C 53.945312 111.460938 53.46875 111.234375 53 110.984375 C 52.53125 110.734375 52.074219 110.460938 51.632812 110.164062 C 51.191406 109.871094 50.765625 109.554688 50.355469 109.21875 C 49.945312 108.878906 49.550781 108.523438 49.175781 108.148438 C 48.800781 107.773438 48.445312 107.382812 48.109375 106.96875 C 47.769531 106.558594 47.453125 106.132812 47.160156 105.691406 C 46.863281 105.25 46.589844 104.796875 46.339844 104.328125 C 46.089844 103.859375 45.859375 103.382812 45.65625 102.890625 C 45.453125 102.402344 45.273438 101.902344 45.117188 101.394531 C 44.964844 100.886719 44.835938 100.371094 44.730469 99.851562 C 44.625 99.328125 44.546875 98.804688 44.492188 98.277344 C 44.441406 97.75 44.414062 97.21875 44.414062 96.6875 Z M 44.425781 96.6875 "/></g><g style="fill:#ffffff;fill-opacity:1;"><g transform="translate(378.082866, 154.926212)"><path style="stroke:none" d="M 10.28125 -16.28125 L 13.375 -16.28125 C 13.070312 -15.5625 12.894531 -14.75 12.84375 -13.84375 C 12.789062 -12.9375 12.765625 -12.050781 12.765625 -11.1875 L 12.765625 1.015625 L 3.09375 -10.625 L 3.09375 -5.09375 C 3.09375 -4.238281 3.117188 -3.359375 3.171875 -2.453125 C 3.222656 -1.546875 3.398438 -0.726562 3.703125 0 L 0.578125 0 C 0.890625 -0.726562 1.070312 -1.546875 1.125 -2.453125 C 1.175781 -3.359375 1.203125 -4.238281 1.203125 -5.09375 L 1.203125 -17.296875 L 10.90625 -5.65625 L 10.90625 -11.1875 C 10.90625 -12.050781 10.875 -12.9375 10.8125 -13.84375 C 10.757812 -14.75 10.582031 -15.5625 10.28125 -16.28125 Z M 10.28125 -16.28125 "/></g></g><g style="fill:#ffffff;fill-opacity:1;"><g transform="translate(392.035029, 154.926212)"><path style="stroke:none" d="M 10.734375 -8.46875 C 10.734375 -7.894531 10.492188 -7.320312 10.015625 -6.75 C 9.535156 -6.1875 8.765625 -5.710938 7.703125 -5.328125 C 6.640625 -4.953125 5.226562 -4.765625 3.46875 -4.765625 C 3.53125 -4.054688 3.6875 -3.378906 3.9375 -2.734375 C 4.195312 -2.085938 4.539062 -1.566406 4.96875 -1.171875 C 5.40625 -0.773438 5.921875 -0.578125 6.515625 -0.578125 C 7.054688 -0.578125 7.503906 -0.734375 7.859375 -1.046875 C 8.210938 -1.367188 8.46875 -1.738281 8.625 -2.15625 L 10 -0.796875 C 9.5625 -0.359375 9.035156 -0.015625 8.421875 0.234375 C 7.816406 0.484375 7.171875 0.609375 6.484375 0.609375 C 5.503906 0.609375 4.644531 0.441406 3.90625 0.109375 C 3.175781 -0.222656 2.5625 -0.675781 2.0625 -1.25 C 1.570312 -1.820312 1.203125 -2.460938 0.953125 -3.171875 C 0.703125 -3.878906 0.578125 -4.601562 0.578125 -5.34375 C 0.578125 -6.320312 0.796875 -7.253906 1.234375 -8.140625 C 1.671875 -9.035156 2.320312 -9.769531 3.1875 -10.34375 C 4.050781 -10.914062 5.144531 -11.203125 6.46875 -11.203125 C 7.90625 -11.203125 8.972656 -10.925781 9.671875 -10.375 C 10.378906 -9.832031 10.734375 -9.195312 10.734375 -8.46875 Z M 3.4375 -5.828125 C 4.644531 -5.828125 5.601562 -5.953125 6.3125 -6.203125 C 7.03125 -6.453125 7.546875 -6.765625 7.859375 -7.140625 C 8.171875 -7.515625 8.328125 -7.882812 8.328125 -8.25 C 8.328125 -8.695312 8.140625 -9.09375 7.765625 -9.4375 C 7.390625 -9.789062 6.910156 -9.96875 6.328125 -9.96875 C 5.722656 -9.96875 5.207031 -9.773438 4.78125 -9.390625 C 4.351562 -9.003906 4.023438 -8.492188 3.796875 -7.859375 C 3.578125 -7.234375 3.457031 -6.554688 3.4375 -5.828125 Z M 3.4375 -5.828125 "/></g></g><g style="fill:#ffffff;fill-opacity:1;"><g transform="translate(403.359531, 154.926212)"><path style="stroke:none" d="M 8.15625 -10.578125 L 11.71875 -11.1875 L 11.71875 -5 C 11.71875 -4.164062 11.738281 -3.304688 11.78125 -2.421875 C 11.832031 -1.535156 12.003906 -0.726562 12.296875 0 L 10.484375 0 C 10.003906 0 9.644531 -0.160156 9.40625 -0.484375 C 9.164062 -0.804688 9.023438 -1.210938 8.984375 -1.703125 C 8.941406 -2.191406 8.976562 -2.675781 9.09375 -3.15625 L 8.875 -3.15625 C 8.539062 -1.882812 8.007812 -0.9375 7.28125 -0.3125 C 6.550781 0.300781 5.765625 0.609375 4.921875 0.609375 C 4.316406 0.609375 3.726562 0.425781 3.15625 0.0625 C 2.582031 -0.300781 2.109375 -0.910156 1.734375 -1.765625 C 1.367188 -2.617188 1.1875 -3.78125 1.1875 -5.25 C 1.1875 -6.125 1.160156 -7.046875 1.109375 -8.015625 C 1.066406 -8.992188 0.890625 -9.847656 0.578125 -10.578125 L 4.15625 -11.1875 L 4.15625 -4.4375 C 4.15625 -3.40625 4.332031 -2.585938 4.6875 -1.984375 C 5.050781 -1.390625 5.472656 -1.09375 5.953125 -1.09375 C 6.304688 -1.09375 6.691406 -1.285156 7.109375 -1.671875 C 7.535156 -2.054688 7.894531 -2.640625 8.1875 -3.421875 C 8.476562 -4.210938 8.640625 -5.203125 8.671875 -6.390625 C 8.710938 -7.585938 8.539062 -8.984375 8.15625 -10.578125 Z M 8.15625 -10.578125 "/></g></g><g style="fill:#ffffff;fill-opacity:1;"><g transform="translate(416.24203, 154.926212)"><path style="stroke:none" d="M 4.15625 -7.1875 C 4.363281 -7.914062 4.648438 -8.582031 5.015625 -9.1875 C 5.390625 -9.789062 5.875 -10.273438 6.46875 -10.640625 C 7.070312 -11.003906 7.785156 -11.1875 8.609375 -11.1875 L 8.609375 -8.875 C 8.453125 -9.050781 8.285156 -9.171875 8.109375 -9.234375 C 7.941406 -9.296875 7.765625 -9.328125 7.578125 -9.328125 C 7.023438 -9.328125 6.519531 -9.085938 6.0625 -8.609375 C 5.613281 -8.140625 5.242188 -7.53125 4.953125 -6.78125 C 4.660156 -6.039062 4.445312 -5.242188 4.3125 -4.390625 C 4.175781 -3.535156 4.144531 -2.71875 4.21875 -1.9375 C 4.289062 -1.15625 4.472656 -0.507812 4.765625 0 L 1.1875 0.625 L 1.1875 -5.484375 C 1.1875 -6.347656 1.160156 -7.226562 1.109375 -8.125 C 1.066406 -9.03125 0.890625 -9.847656 0.578125 -10.578125 L 4.15625 -11.1875 L 4.15625 -9.765625 C 4.15625 -9.347656 4.140625 -8.898438 4.109375 -8.421875 C 4.078125 -7.953125 4.023438 -7.539062 3.953125 -7.1875 Z M 4.15625 -7.1875 "/></g></g><g style="fill:#ffffff;fill-opacity:1;"><g transform="translate(425.427205, 154.926212)"><path style="stroke:none" d="M 6.578125 -9.828125 C 5.878906 -9.828125 5.296875 -9.609375 4.828125 -9.171875 C 4.367188 -8.742188 4.019531 -8.1875 3.78125 -7.5 C 3.550781 -6.8125 3.441406 -6.082031 3.453125 -5.3125 C 3.460938 -4.539062 3.582031 -3.8125 3.8125 -3.125 C 4.039062 -2.4375 4.390625 -1.875 4.859375 -1.4375 C 5.335938 -1.007812 5.921875 -0.796875 6.609375 -0.796875 C 7.285156 -0.796875 7.851562 -1.007812 8.3125 -1.4375 C 8.78125 -1.875 9.128906 -2.4375 9.359375 -3.125 C 9.597656 -3.8125 9.71875 -4.539062 9.71875 -5.3125 C 9.71875 -6.082031 9.601562 -6.8125 9.375 -7.5 C 9.15625 -8.1875 8.8125 -8.742188 8.34375 -9.171875 C 7.882812 -9.609375 7.296875 -9.828125 6.578125 -9.828125 Z M 6.578125 0.609375 C 5.441406 0.609375 4.460938 0.394531 3.640625 -0.03125 C 2.828125 -0.457031 2.175781 -1.023438 1.6875 -1.734375 C 1.195312 -2.441406 0.867188 -3.210938 0.703125 -4.046875 C 0.546875 -4.878906 0.546875 -5.710938 0.703125 -6.546875 C 0.867188 -7.390625 1.195312 -8.160156 1.6875 -8.859375 C 2.175781 -9.566406 2.828125 -10.132812 3.640625 -10.5625 C 4.453125 -10.988281 5.429688 -11.203125 6.578125 -11.203125 C 7.722656 -11.203125 8.703125 -10.988281 9.515625 -10.5625 C 10.328125 -10.132812 10.972656 -9.566406 11.453125 -8.859375 C 11.941406 -8.160156 12.265625 -7.390625 12.421875 -6.546875 C 12.585938 -5.710938 12.585938 -4.878906 12.421875 -4.046875 C 12.265625 -3.210938 11.941406 -2.441406 11.453125 -1.734375 C 10.960938 -1.023438 10.3125 -0.457031 9.5 -0.03125 C 8.6875 0.394531 7.710938 0.609375 6.578125 0.609375 Z M 6.578125 0.609375 "/></g></g><g style="fill:#ffffff;fill-opacity:1;"><g transform="translate(438.565486, 154.926212)"><path style="stroke:none" d="M 8.8125 -4.421875 L 1.15625 -4.421875 L 1.15625 -5.828125 L 8.8125 -5.828125 Z M 8.8125 -4.421875 "/></g></g><g style="fill:#ffffff;fill-opacity:1;"><g transform="translate(448.494776, 154.926212)"><path style="stroke:none" d="M 6.25 -1.421875 C 7.125 -1.421875 8.015625 -1.445312 8.921875 -1.5 C 9.828125 -1.550781 10.632812 -1.722656 11.34375 -2.015625 L 10.921875 0 L 0.5625 0 C 0.863281 -0.726562 1.035156 -1.546875 1.078125 -2.453125 C 1.128906 -3.359375 1.15625 -4.238281 1.15625 -5.09375 L 1.15625 -11.1875 C 1.15625 -12.050781 1.128906 -12.9375 1.078125 -13.84375 C 1.035156 -14.75 0.863281 -15.5625 0.5625 -16.28125 L 10.4375 -16.28125 L 10.875 -14.25 C 10.144531 -14.5625 9.332031 -14.738281 8.4375 -14.78125 C 7.539062 -14.832031 6.660156 -14.859375 5.796875 -14.859375 L 4.46875 -14.859375 L 4.46875 -10.578125 C 5.019531 -10.578125 5.601562 -10.601562 6.21875 -10.65625 C 6.832031 -10.707031 7.367188 -10.882812 7.828125 -11.1875 L 7.828125 -8.5625 C 7.367188 -8.863281 6.832031 -9.035156 6.21875 -9.078125 C 5.601562 -9.128906 5.019531 -9.15625 4.46875 -9.15625 L 4.46875 -1.421875 Z M 6.25 -1.421875 "/></g></g><g style="fill:#ffffff;fill-opacity:1;"><g transform="translate(460.423871, 154.926212)"><path style="stroke:none" d="M 6.0625 -1.140625 C 6.5625 -1.140625 6.976562 -1.304688 7.3125 -1.640625 C 7.65625 -1.984375 7.941406 -2.4375 8.171875 -3 C 8.398438 -3.570312 8.570312 -4.191406 8.6875 -4.859375 C 8.8125 -5.523438 8.898438 -6.191406 8.953125 -6.859375 C 9.015625 -7.535156 9.050781 -8.15625 9.0625 -8.71875 C 9.082031 -9.28125 9.09375 -9.722656 9.09375 -10.046875 C 7.789062 -9.867188 6.75 -9.5 5.96875 -8.9375 C 5.1875 -8.375 4.625 -7.707031 4.28125 -6.9375 C 3.9375 -6.175781 3.765625 -5.40625 3.765625 -4.625 C 3.765625 -4.019531 3.859375 -3.445312 4.046875 -2.90625 C 4.234375 -2.375 4.492188 -1.945312 4.828125 -1.625 C 5.171875 -1.300781 5.582031 -1.140625 6.0625 -1.140625 Z M 9.09375 -11.1875 C 9.09375 -12.050781 9.0625 -12.925781 9 -13.8125 C 8.945312 -14.707031 8.769531 -15.519531 8.46875 -16.25 L 12.09375 -16.875 L 12.09375 -5.1875 C 12.09375 -4.3125 12.117188 -3.410156 12.171875 -2.484375 C 12.222656 -1.566406 12.394531 -0.738281 12.6875 0 L 10.6875 0 C 10.164062 0 9.769531 -0.179688 9.5 -0.546875 C 9.238281 -0.921875 9.109375 -1.359375 9.109375 -1.859375 C 9.109375 -2.085938 9.128906 -2.316406 9.171875 -2.546875 C 9.210938 -2.785156 9.253906 -3.015625 9.296875 -3.234375 L 9.09375 -3.234375 C 9.070312 -3.148438 9.015625 -2.96875 8.921875 -2.6875 C 8.828125 -2.414062 8.679688 -2.09375 8.484375 -1.71875 C 8.296875 -1.34375 8.046875 -0.976562 7.734375 -0.625 C 7.429688 -0.269531 7.050781 0.0195312 6.59375 0.25 C 6.144531 0.488281 5.613281 0.609375 5 0.609375 C 4.144531 0.609375 3.382812 0.375 2.71875 -0.09375 C 2.050781 -0.5625 1.523438 -1.175781 1.140625 -1.9375 C 0.765625 -2.707031 0.578125 -3.523438 0.578125 -4.390625 C 0.578125 -5.140625 0.734375 -5.882812 1.046875 -6.625 C 1.359375 -7.375 1.851562 -8.066406 2.53125 -8.703125 C 3.21875 -9.347656 4.097656 -9.882812 5.171875 -10.3125 C 6.242188 -10.75 7.550781 -11.039062 9.09375 -11.1875 Z M 9.09375 -11.1875 "/></g></g><g style="fill:#ffffff;fill-opacity:1;"><g transform="translate(473.678422, 154.926212)"><path style="stroke:none" d="M 8.15625 -10.578125 L 11.71875 -11.1875 L 11.71875 -5 C 11.71875 -4.164062 11.738281 -3.304688 11.78125 -2.421875 C 11.832031 -1.535156 12.003906 -0.726562 12.296875 0 L 10.484375 0 C 10.003906 0 9.644531 -0.160156 9.40625 -0.484375 C 9.164062 -0.804688 9.023438 -1.210938 8.984375 -1.703125 C 8.941406 -2.191406 8.976562 -2.675781 9.09375 -3.15625 L 8.875 -3.15625 C 8.539062 -1.882812 8.007812 -0.9375 7.28125 -0.3125 C 6.550781 0.300781 5.765625 0.609375 4.921875 0.609375 C 4.316406 0.609375 3.726562 0.425781 3.15625 0.0625 C 2.582031 -0.300781 2.109375 -0.910156 1.734375 -1.765625 C 1.367188 -2.617188 1.1875 -3.78125 1.1875 -5.25 C 1.1875 -6.125 1.160156 -7.046875 1.109375 -8.015625 C 1.066406 -8.992188 0.890625 -9.847656 0.578125 -10.578125 L 4.15625 -11.1875 L 4.15625 -4.4375 C 4.15625 -3.40625 4.332031 -2.585938 4.6875 -1.984375 C 5.050781 -1.390625 5.472656 -1.09375 5.953125 -1.09375 C 6.304688 -1.09375 6.691406 -1.285156 7.109375 -1.671875 C 7.535156 -2.054688 7.894531 -2.640625 8.1875 -3.421875 C 8.476562 -4.210938 8.640625 -5.203125 8.671875 -6.390625 C 8.710938 -7.585938 8.539062 -8.984375 8.15625 -10.578125 Z M 8.15625 -10.578125 "/></g></g><g style="fill:#ffffff;fill-opacity:1;"><g transform="translate(486.560921, 154.926212)"><path style="stroke:none" d="M 6.390625 0.609375 C 5.109375 0.609375 4.035156 0.320312 3.171875 -0.25 C 2.316406 -0.820312 1.671875 -1.554688 1.234375 -2.453125 C 0.796875 -3.359375 0.578125 -4.300781 0.578125 -5.28125 C 0.578125 -6.019531 0.703125 -6.742188 0.953125 -7.453125 C 1.203125 -8.160156 1.570312 -8.796875 2.0625 -9.359375 C 2.5625 -9.921875 3.179688 -10.367188 3.921875 -10.703125 C 4.671875 -11.035156 5.539062 -11.203125 6.53125 -11.203125 C 7.707031 -11.203125 8.71875 -10.773438 9.5625 -9.921875 L 8.203125 -8.5625 C 8.140625 -8.914062 7.96875 -9.25 7.6875 -9.5625 C 7.414062 -9.882812 7 -10.046875 6.4375 -10.046875 C 5.800781 -10.046875 5.269531 -9.816406 4.84375 -9.359375 C 4.414062 -8.898438 4.097656 -8.3125 3.890625 -7.59375 C 3.679688 -6.875 3.578125 -6.117188 3.578125 -5.328125 C 3.578125 -4.535156 3.679688 -3.773438 3.890625 -3.046875 C 4.097656 -2.328125 4.414062 -1.734375 4.84375 -1.265625 C 5.269531 -0.804688 5.796875 -0.578125 6.421875 -0.578125 C 6.972656 -0.578125 7.410156 -0.742188 7.734375 -1.078125 C 8.066406 -1.410156 8.285156 -1.769531 8.390625 -2.15625 L 9.765625 -0.796875 C 9.328125 -0.359375 8.828125 -0.015625 8.265625 0.234375 C 7.703125 0.484375 7.078125 0.609375 6.390625 0.609375 Z M 6.390625 0.609375 "/></g></g><g style="fill:#ffffff;fill-opacity:1;"><g transform="translate(496.908779, 154.926212)"><path style="stroke:none" d="M 11.28125 -5.1875 C 11.28125 -4.3125 11.304688 -3.410156 11.359375 -2.484375 C 11.410156 -1.566406 11.59375 -0.738281 11.90625 0 L 9.96875 0 C 9.445312 0 9.050781 -0.179688 8.78125 -0.546875 C 8.519531 -0.921875 8.390625 -1.375 8.390625 -1.90625 C 8.390625 -2.125 8.410156 -2.347656 8.453125 -2.578125 C 8.492188 -2.804688 8.535156 -3.023438 8.578125 -3.234375 L 8.375 -3.234375 C 8.289062 -2.941406 8.132812 -2.578125 7.90625 -2.140625 C 7.675781 -1.703125 7.367188 -1.273438 6.984375 -0.859375 C 6.609375 -0.441406 6.164062 -0.09375 5.65625 0.1875 C 5.15625 0.46875 4.585938 0.609375 3.953125 0.609375 C 3.265625 0.609375 2.664062 0.46875 2.15625 0.1875 C 1.644531 -0.09375 1.253906 -0.460938 0.984375 -0.921875 C 0.710938 -1.390625 0.578125 -1.890625 0.578125 -2.421875 C 0.578125 -3.128906 0.835938 -3.835938 1.359375 -4.546875 C 1.890625 -5.265625 2.710938 -5.859375 3.828125 -6.328125 C 4.953125 -6.804688 6.394531 -7.046875 8.15625 -7.046875 C 8.082031 -7.878906 7.835938 -8.585938 7.421875 -9.171875 C 7.015625 -9.753906 6.414062 -10.046875 5.625 -10.046875 C 5.15625 -10.046875 4.765625 -9.941406 4.453125 -9.734375 C 4.148438 -9.535156 3.914062 -9.316406 3.75 -9.078125 C 3.59375 -8.847656 3.484375 -8.675781 3.421875 -8.5625 L 2.046875 -9.921875 C 2.492188 -10.359375 3.054688 -10.679688 3.734375 -10.890625 C 4.421875 -11.097656 5.097656 -11.203125 5.765625 -11.203125 C 6.722656 -11.203125 7.617188 -10.976562 8.453125 -10.53125 C 9.296875 -10.09375 9.976562 -9.429688 10.5 -8.546875 C 11.019531 -7.671875 11.28125 -6.550781 11.28125 -5.1875 Z M 3.515625 -2.53125 C 3.515625 -2.050781 3.640625 -1.648438 3.890625 -1.328125 C 4.148438 -1.003906 4.507812 -0.84375 4.96875 -0.84375 C 5.53125 -0.84375 6.050781 -1.082031 6.53125 -1.5625 C 7.007812 -2.050781 7.40625 -2.6875 7.71875 -3.46875 C 8.03125 -4.257812 8.191406 -5.09375 8.203125 -5.96875 C 7.054688 -5.96875 6.140625 -5.785156 5.453125 -5.421875 C 4.765625 -5.054688 4.269531 -4.609375 3.96875 -4.078125 C 3.664062 -3.546875 3.515625 -3.03125 3.515625 -2.53125 Z M 3.515625 -2.53125 "/></g></g><g style="fill:#ffffff;fill-opacity:1;"><g transform="translate(509.372711, 154.926212)"><path style="stroke:none" d="M 6.390625 0.609375 C 5.109375 0.609375 4.035156 0.320312 3.171875 -0.25 C 2.316406 -0.820312 1.671875 -1.554688 1.234375 -2.453125 C 0.796875 -3.359375 0.578125 -4.300781 0.578125 -5.28125 C 0.578125 -6.019531 0.703125 -6.742188 0.953125 -7.453125 C 1.203125 -8.160156 1.570312 -8.796875 2.0625 -9.359375 C 2.5625 -9.921875 3.179688 -10.367188 3.921875 -10.703125 C 4.671875 -11.035156 5.539062 -11.203125 6.53125 -11.203125 C 7.707031 -11.203125 8.71875 -10.773438 9.5625 -9.921875 L 8.203125 -8.5625 C 8.140625 -8.914062 7.96875 -9.25 7.6875 -9.5625 C 7.414062 -9.882812 7 -10.046875 6.4375 -10.046875 C 5.800781 -10.046875 5.269531 -9.816406 4.84375 -9.359375 C 4.414062 -8.898438 4.097656 -8.3125 3.890625 -7.59375 C 3.679688 -6.875 3.578125 -6.117188 3.578125 -5.328125 C 3.578125 -4.535156 3.679688 -3.773438 3.890625 -3.046875 C 4.097656 -2.328125 4.414062 -1.734375 4.84375 -1.265625 C 5.269531 -0.804688 5.796875 -0.578125 6.421875 -0.578125 C 6.972656 -0.578125 7.410156 -0.742188 7.734375 -1.078125 C 8.066406 -1.410156 8.285156 -1.769531 8.390625 -2.15625 L 9.765625 -0.796875 C 9.328125 -0.359375 8.828125 -0.015625 8.265625 0.234375 C 7.703125 0.484375 7.078125 0.609375 6.390625 0.609375 Z M 6.390625 0.609375 "/></g></g><g style="fill:#ffffff;fill-opacity:1;"><g transform="translate(519.720569, 154.926212)"><path style="stroke:none" d="M 2.71875 -12.8125 C 3.101562 -12.8125 3.429688 -12.945312 3.703125 -13.21875 C 3.972656 -13.488281 4.109375 -13.816406 4.109375 -14.203125 C 4.109375 -14.609375 3.972656 -14.941406 3.703125 -15.203125 C 3.429688 -15.460938 3.101562 -15.59375 2.71875 -15.59375 C 2.332031 -15.59375 2.003906 -15.460938 1.734375 -15.203125 C 1.460938 -14.941406 1.328125 -14.609375 1.328125 -14.203125 C 1.328125 -13.816406 1.460938 -13.488281 1.734375 -13.21875 C 2.003906 -12.945312 2.332031 -12.8125 2.71875 -12.8125 Z M 1.296875 -5.0625 L 1.296875 -5.484375 C 1.296875 -6.335938 1.269531 -7.21875 1.21875 -8.125 C 1.175781 -9.03125 1.003906 -9.847656 0.703125 -10.578125 L 4.25 -11.1875 L 4.25 -5.0625 C 4.25 -4.21875 4.273438 -3.34375 4.328125 -2.4375 C 4.390625 -1.539062 4.566406 -0.726562 4.859375 0 L 0.703125 0 C 1.003906 -0.726562 1.175781 -1.539062 1.21875 -2.4375 C 1.269531 -3.34375 1.296875 -4.21875 1.296875 -5.0625 Z M 1.296875 -5.0625 "/></g></g><g style="fill:#ffffff;fill-opacity:1;"><g transform="translate(525.278175, 154.926212)"><path style="stroke:none" d="M 6.578125 -9.828125 C 5.878906 -9.828125 5.296875 -9.609375 4.828125 -9.171875 C 4.367188 -8.742188 4.019531 -8.1875 3.78125 -7.5 C 3.550781 -6.8125 3.441406 -6.082031 3.453125 -5.3125 C 3.460938 -4.539062 3.582031 -3.8125 3.8125 -3.125 C 4.039062 -2.4375 4.390625 -1.875 4.859375 -1.4375 C 5.335938 -1.007812 5.921875 -0.796875 6.609375 -0.796875 C 7.285156 -0.796875 7.851562 -1.007812 8.3125 -1.4375 C 8.78125 -1.875 9.128906 -2.4375 9.359375 -3.125 C 9.597656 -3.8125 9.71875 -4.539062 9.71875 -5.3125 C 9.71875 -6.082031 9.601562 -6.8125 9.375 -7.5 C 9.15625 -8.1875 8.8125 -8.742188 8.34375 -9.171875 C 7.882812 -9.609375 7.296875 -9.828125 6.578125 -9.828125 Z M 6.578125 0.609375 C 5.441406 0.609375 4.460938 0.394531 3.640625 -0.03125 C 2.828125 -0.457031 2.175781 -1.023438 1.6875 -1.734375 C 1.195312 -2.441406 0.867188 -3.210938 0.703125 -4.046875 C 0.546875 -4.878906 0.546875 -5.710938 0.703125 -6.546875 C 0.867188 -7.390625 1.195312 -8.160156 1.6875 -8.859375 C 2.175781 -9.566406 2.828125 -10.132812 3.640625 -10.5625 C 4.453125 -10.988281 5.429688 -11.203125 6.578125 -11.203125 C 7.722656 -11.203125 8.703125 -10.988281 9.515625 -10.5625 C 10.328125 -10.132812 10.972656 -9.566406 11.453125 -8.859375 C 11.941406 -8.160156 12.265625 -7.390625 12.421875 -6.546875 C 12.585938 -5.710938 12.585938 -4.878906 12.421875 -4.046875 C 12.265625 -3.210938 11.941406 -2.441406 11.453125 -1.734375 C 10.960938 -1.023438 10.3125 -0.457031 9.5 -0.03125 C 8.6875 0.394531 7.710938 0.609375 6.578125 0.609375 Z M 5.09375 -13.71875 C 5.289062 -13.914062 5.425781 -14.140625 5.5 -14.390625 C 5.582031 -14.640625 5.625 -14.894531 5.625 -15.15625 C 5.625 -15.445312 5.578125 -15.734375 5.484375 -16.015625 C 5.390625 -16.296875 5.273438 -16.546875 5.140625 -16.765625 L 7.421875 -16.765625 C 7.421875 -16.066406 7.316406 -15.382812 7.109375 -14.71875 C 6.910156 -14.0625 6.523438 -13.441406 5.953125 -12.859375 Z M 5.09375 -13.71875 "/></g></g><g style="fill:#ffffff;fill-opacity:1;"><g transform="translate(538.416455, 154.926212)"><path style="stroke:none" d="M 7.09375 -9.53125 C 6.707031 -9.53125 6.296875 -9.316406 5.859375 -8.890625 C 5.421875 -8.460938 5.046875 -7.835938 4.734375 -7.015625 C 4.429688 -6.203125 4.253906 -5.203125 4.203125 -4.015625 C 4.160156 -2.835938 4.332031 -1.5 4.71875 0 L 0.53125 0 C 0.84375 -0.726562 1.023438 -1.546875 1.078125 -2.453125 C 1.128906 -3.359375 1.15625 -4.238281 1.15625 -5.09375 L 1.15625 -5.484375 C 1.15625 -6.335938 1.128906 -7.21875 1.078125 -8.125 C 1.023438 -9.03125 0.84375 -9.847656 0.53125 -10.578125 L 4.109375 -11.203125 L 4.109375 -10 C 4.109375 -9.582031 4.097656 -9.128906 4.078125 -8.640625 C 4.054688 -8.160156 4 -7.742188 3.90625 -7.390625 L 4.109375 -7.390625 C 4.472656 -8.679688 5.015625 -9.632812 5.734375 -10.25 C 6.460938 -10.875 7.25 -11.1875 8.09375 -11.1875 C 8.707031 -11.1875 9.296875 -11.003906 9.859375 -10.640625 C 10.429688 -10.273438 10.898438 -9.664062 11.265625 -8.8125 C 11.640625 -7.957031 11.828125 -6.796875 11.828125 -5.328125 C 11.828125 -4.753906 11.832031 -4.148438 11.84375 -3.515625 C 11.863281 -2.878906 11.921875 -2.257812 12.015625 -1.65625 C 12.109375 -1.050781 12.257812 -0.503906 12.46875 -0.015625 L 8.875 0.609375 L 8.875 -6.046875 C 8.875 -7.097656 8.695312 -7.941406 8.34375 -8.578125 C 7.988281 -9.210938 7.570312 -9.53125 7.09375 -9.53125 Z M 7.09375 -9.53125 "/></g></g></g></svg>